<mxfile host="Electron" agent="Mozilla/5.0 (Windows NT 10.0; Win64; x64) AppleWebKit/537.36 (KHTML, like Gecko) draw.io/28.2.8 Chrome/140.0.7339.240 Electron/38.4.0 Safari/537.36" version="28.2.8">
  <diagram name="Page-1" id="cckhRAU9klDnyzQ11kri">
    <mxGraphModel dx="576" dy="841" grid="1" gridSize="10" guides="1" tooltips="1" connect="1" arrows="1" fold="1" page="1" pageScale="1" pageWidth="850" pageHeight="1100" math="0" shadow="0">
      <root>
        <mxCell id="0" />
        <mxCell id="1" parent="0" />
        <mxCell id="jGKvfiks8SonWcWXjs5c-48" value="Genre_Management" style="whiteSpace=wrap;strokeWidth=2;verticalAlign=top;" vertex="1" parent="1">
          <mxGeometry x="1190" y="980" width="498" height="387" as="geometry" />
        </mxCell>
        <mxCell id="jGKvfiks8SonWcWXjs5c-49" value="Genre Controller" style="whiteSpace=wrap;strokeWidth=2;" vertex="1" parent="jGKvfiks8SonWcWXjs5c-48">
          <mxGeometry x="161" y="46" width="180" height="54" as="geometry" />
        </mxCell>
        <mxCell id="jGKvfiks8SonWcWXjs5c-50" value="Genre Service" style="whiteSpace=wrap;strokeWidth=2;" vertex="1" parent="jGKvfiks8SonWcWXjs5c-48">
          <mxGeometry x="56" y="175" width="160" height="54" as="geometry" />
        </mxCell>
        <mxCell id="jGKvfiks8SonWcWXjs5c-51" value="Genre DTOs / Views" style="whiteSpace=wrap;strokeWidth=2;" vertex="1" parent="jGKvfiks8SonWcWXjs5c-48">
          <mxGeometry x="268" y="175" width="202" height="54" as="geometry" />
        </mxCell>
        <mxCell id="jGKvfiks8SonWcWXjs5c-52" value="Genre Entity" style="whiteSpace=wrap;strokeWidth=2;" vertex="1" parent="jGKvfiks8SonWcWXjs5c-48">
          <mxGeometry x="50" y="304" width="151" height="54" as="geometry" />
        </mxCell>
        <mxCell id="jGKvfiks8SonWcWXjs5c-53" value="Genre Repository" style="whiteSpace=wrap;strokeWidth=2;" vertex="1" parent="jGKvfiks8SonWcWXjs5c-48">
          <mxGeometry x="268" y="304" width="183" height="54" as="geometry" />
        </mxCell>
        <mxCell id="jGKvfiks8SonWcWXjs5c-54" value="" style="curved=1;startArrow=none;endArrow=block;exitX=0.23;exitY=0.99;entryX=0.5;entryY=-0.01;rounded=0;" edge="1" parent="jGKvfiks8SonWcWXjs5c-48" source="jGKvfiks8SonWcWXjs5c-49" target="jGKvfiks8SonWcWXjs5c-50">
          <mxGeometry relative="1" as="geometry">
            <Array as="points">
              <mxPoint x="136" y="137" />
            </Array>
          </mxGeometry>
        </mxCell>
        <mxCell id="jGKvfiks8SonWcWXjs5c-55" value="" style="curved=1;startArrow=none;endArrow=block;exitX=0.78;exitY=0.99;entryX=0.5;entryY=-0.01;rounded=0;" edge="1" parent="jGKvfiks8SonWcWXjs5c-48" source="jGKvfiks8SonWcWXjs5c-49" target="jGKvfiks8SonWcWXjs5c-51">
          <mxGeometry relative="1" as="geometry">
            <Array as="points">
              <mxPoint x="370" y="137" />
            </Array>
          </mxGeometry>
        </mxCell>
        <mxCell id="jGKvfiks8SonWcWXjs5c-56" value="" style="curved=1;startArrow=none;endArrow=block;exitX=0.47;exitY=0.99;entryX=0.5;entryY=-0.01;rounded=0;" edge="1" parent="jGKvfiks8SonWcWXjs5c-48" source="jGKvfiks8SonWcWXjs5c-50" target="jGKvfiks8SonWcWXjs5c-52">
          <mxGeometry relative="1" as="geometry">
            <Array as="points">
              <mxPoint x="126" y="266" />
            </Array>
          </mxGeometry>
        </mxCell>
        <mxCell id="jGKvfiks8SonWcWXjs5c-57" value="" style="curved=1;startArrow=none;endArrow=block;exitX=0.78;exitY=0.99;entryX=0.24;entryY=-0.01;rounded=0;" edge="1" parent="jGKvfiks8SonWcWXjs5c-48" source="jGKvfiks8SonWcWXjs5c-50" target="jGKvfiks8SonWcWXjs5c-53">
          <mxGeometry relative="1" as="geometry">
            <Array as="points">
              <mxPoint x="244" y="266" />
            </Array>
          </mxGeometry>
        </mxCell>
        <mxCell id="jGKvfiks8SonWcWXjs5c-58" value="" style="curved=1;startArrow=none;endArrow=block;exitX=0.5;exitY=0.99;entryX=0.52;entryY=-0.01;rounded=0;" edge="1" parent="jGKvfiks8SonWcWXjs5c-48" source="jGKvfiks8SonWcWXjs5c-51" target="jGKvfiks8SonWcWXjs5c-53">
          <mxGeometry relative="1" as="geometry">
            <Array as="points">
              <mxPoint x="370" y="266" />
            </Array>
          </mxGeometry>
        </mxCell>
        <mxCell id="jGKvfiks8SonWcWXjs5c-34" value="" style="shape=module;align=left;spacingLeft=20;align=center;verticalAlign=top;whiteSpace=wrap;html=1;movable=1;resizable=1;rotatable=1;deletable=1;editable=1;locked=0;connectable=1;" vertex="1" parent="jGKvfiks8SonWcWXjs5c-48">
          <mxGeometry x="450" y="10" width="34.5" height="50" as="geometry" />
        </mxCell>
      </root>
    </mxGraphModel>
  </diagram>
</mxfile>
